<?xml version="1.0" standalone="no"?>
<!DOCTYPE svg PUBLIC "-//W3C//DTD SVG 20010904//EN"
 "http://www.w3.org/TR/2001/REC-SVG-20010904/DTD/svg10.dtd">
<svg version="1.0" xmlns="http://www.w3.org/2000/svg"
 width="500.000000pt" height="500.000000pt" viewBox="0 0 500.000000 500.000000"
 preserveAspectRatio="xMidYMid meet">

<g transform="translate(0.000000,500.000000) scale(0.100000,-0.100000)"
fill="#000000" stroke="none">
<path d="M0 2500 l0 -2500 2500 0 2500 0 0 2500 0 2500 -2500 0 -2500 0 0
-2500z m3140 1628 c67 -34 80 -68 80 -210 0 -113 1 -117 23 -120 12 -2 39 4
59 14 86 42 196 31 272 -27 33 -25 59 -34 116 -43 80 -12 115 -31 143 -80 16
-28 17 -40 6 -142 -11 -100 -11 -114 4 -140 19 -31 49 -188 46 -235 -2 -29 6
-51 58 -162 22 -45 25 -64 21 -127 -4 -85 -20 -115 -83 -156 -32 -21 -35 -25
-17 -28 11 -2 52 -41 91 -89 62 -75 71 -90 72 -127 0 -22 4 -102 8 -176 l9
-135 -62 -64 c-33 -35 -126 -115 -206 -179 -80 -63 -149 -118 -153 -122 -5 -4
-23 -69 -41 -144 -18 -76 -37 -141 -43 -147 -12 -12 -1025 -502 -1038 -502
-12 0 -1026 490 -1038 502 -5 5 -25 75 -45 156 l-37 149 -154 107 c-85 60
-180 134 -212 166 l-57 58 12 197 11 198 63 75 c40 48 70 75 83 75 19 0 18 3
-9 29 -51 52 -76 116 -80 211 -5 114 17 158 103 205 92 50 121 84 128 149 6
62 23 99 66 145 31 33 31 34 21 95 -14 86 -12 132 5 167 20 37 70 69 110 70
26 0 33 7 55 52 21 42 35 56 79 79 94 49 212 35 285 -35 29 -27 47 -37 66 -35
25 3 25 3 30 128 3 69 10 134 17 145 17 30 48 55 79 65 16 4 250 9 519 9 490
1 491 1 535 -21z"/>
<path d="M2077 4089 c-36 -21 -47 -63 -47 -187 0 -84 -4 -123 -12 -129 -7 -6
-35 -13 -63 -16 -48 -6 -51 -5 -70 25 -11 17 -37 40 -57 51 -109 55 -238 14
-272 -88 -11 -30 -20 -41 -38 -43 -115 -13 -133 -40 -116 -182 l12 -100 -36
-38 c-47 -49 -56 -69 -64 -137 -6 -48 -13 -62 -48 -98 -23 -23 -64 -53 -90
-67 -66 -34 -86 -64 -93 -138 -6 -66 11 -130 49 -184 19 -28 125 -92 171 -103
15 -4 27 -11 27 -17 0 -5 -6 -5 -15 -1 -9 5 -53 4 -100 -2 l-85 -10 -52 -63
-52 -64 -9 -180 -10 -180 44 -44 c39 -40 328 -249 335 -242 1 2 -6 39 -16 83
-23 97 -24 100 -6 86 8 -7 40 -119 72 -249 32 -130 63 -243 69 -249 12 -14
984 -486 1000 -486 11 0 56 22 605 287 211 103 390 192 396 199 7 6 35 116 64
242 47 206 72 286 86 272 3 -3 -6 -49 -20 -103 -14 -54 -24 -100 -22 -102 6
-5 300 234 344 280 l43 45 -7 160 -7 161 -63 75 c-62 74 -64 75 -121 82 -32 3
-68 9 -80 12 l-23 5 23 18 c13 11 47 28 76 39 101 38 131 76 131 163 0 39 -8
62 -71 193 -12 25 -19 61 -19 96 0 81 -18 170 -42 203 -19 27 -20 34 -9 115
24 186 15 204 -114 222 -60 8 -86 17 -110 36 -69 59 -172 72 -247 33 -33 -17
-51 -20 -90 -15 l-48 7 -1 101 c-1 56 -2 109 -3 117 -2 8 -3 27 -4 41 -1 15
-14 38 -28 53 l-27 26 -511 0 c-328 0 -517 -4 -529 -11z m1043 -58 c6 -12 10
-121 10 -283 0 -148 4 -257 9 -250 11 18 51 11 65 -10 8 -14 6 -21 -9 -35 -17
-16 -17 -16 -6 -1 7 10 11 23 9 29 -2 6 -18 -16 -36 -49 l-32 -60 0 -336 0
-336 -82 1 c-46 1 -73 4 -60 6 19 4 22 11 22 49 l0 44 -329 0 -330 0 -23 -42
-23 -43 -113 -3 -112 -3 0 64 0 64 41 6 c22 3 48 12 58 21 15 14 18 13 29 -4
11 -19 24 -20 175 -20 110 0 157 3 147 10 -10 7 -4 8 20 2 44 -9 176 -9 185 0
4 4 4 12 0 18 -6 9 -9 9 -15 0 -5 -8 -9 -6 -12 7 -6 23 18 27 26 6 3 -8 10
-12 16 -8 5 3 15 -3 22 -15 12 -18 23 -20 114 -20 74 0 105 4 113 14 8 9 10
164 9 557 l-3 544 -199 3 -198 2 -27 29 c-58 62 -175 62 -259 1 -24 -17 -56
-30 -78 -32 l-39 -3 -3 -119 -3 -118 -25 27 c-20 22 -32 26 -59 23 l-35 -4 0
124 c0 68 5 132 10 143 10 18 27 19 515 19 488 0 505 -1 515 -19z m-603 -32
c20 -6 42 -28 62 -60 17 -28 31 -53 31 -55 0 -14 -23 12 -41 47 -18 37 -22 39
-53 33 -27 -4 -39 -1 -55 15 -17 17 -25 18 -53 10 -44 -12 -49 -10 -13 6 37
17 82 19 122 4z m360 -95 c-3 -3 -12 -4 -19 -1 -8 3 -5 6 6 6 11 1 17 -2 13
-5z m-77 -14 c0 -5 -5 -10 -11 -10 -5 0 -7 5 -4 10 3 6 8 10 11 10 2 0 4 -4 4
-10z m140 -51 c0 -6 -4 -7 -10 -4 -5 3 -10 11 -10 17 0 6 -6 19 -12 28 -7 9
-3 5 10 -8 12 -13 22 -28 22 -33z m-41 25 c28 -35 26 -69 -4 -100 -20 -20 -33
-24 -69 -21 -25 1 -48 6 -52 10 -5 4 -7 29 -6 55 1 37 -1 43 -8 27 l-10 -20 3
20 c2 11 8 19 14 18 6 -1 19 7 28 17 27 30 79 26 104 -6z m-261 -69 c-3 -3 -9
2 -12 12 -6 14 -5 15 5 6 7 -7 10 -15 7 -18z m286 -30 c-19 -29 -52 -46 -87
-44 -12 1 -4 5 18 10 42 10 74 41 76 74 1 16 2 17 6 3 2 -9 -4 -29 -13 -43z
m-167 23 c-3 -8 -6 -5 -6 6 -1 11 2 17 5 13 3 -3 4 -12 1 -19z m-141 -27 c-20
-22 -21 -45 -2 -38 18 7 26 -13 26 -64 0 -24 -5 -39 -12 -39 -9 0 -9 -3 0 -12
18 -18 15 -26 -19 -43 -28 -15 -33 -15 -55 0 -14 9 -24 25 -24 39 0 12 -9 31
-20 41 -20 19 -20 19 30 43 27 13 50 28 50 33 0 14 -20 11 -26 -5 -3 -8 -15
-13 -27 -13 -12 1 -32 -2 -44 -7 -15 -4 -23 -3 -23 3 0 6 8 11 18 11 10 0 27
7 38 15 12 8 25 11 29 7 4 -4 5 5 1 21 -6 26 8 39 17 15 3 -10 9 -9 22 4 23
22 41 12 21 -11z m-857 -7 c22 -5 33 -14 37 -30 3 -13 12 -28 20 -35 29 -24
17 -69 -31 -115 -39 -37 -45 -48 -45 -83 0 -33 -19 -71 -35 -71 -18 0 -35 16
-35 32 0 11 -7 26 -15 34 -8 9 -15 19 -15 24 0 5 7 15 15 24 18 17 19 33 4 38
-7 2 -5 13 4 32 11 20 13 36 6 59 -22 75 10 107 90 91z m389 -27 c13 -15 17
-163 7 -229 -4 -30 -12 -48 -21 -48 -19 0 -21 7 -28 100 -4 47 -9 104 -12 127
-3 23 -3 46 1 52 9 15 40 14 53 -2z m208 -12 c17 -14 18 -15 0 -9 -14 5 -17 3
-14 -12 2 -12 13 -20 31 -22 28 -3 38 -22 12 -22 -20 0 -65 45 -65 65 0 19 11
19 36 0z m1141 -15 c18 -10 41 -37 53 -59 31 -62 24 -117 -10 -76 -7 9 -10 27
-7 45 5 23 1 36 -19 57 -24 27 -25 27 -19 4 4 -13 4 -48 0 -78 -5 -42 -10 -53
-23 -51 -13 2 -15 15 -13 70 1 37 -3 76 -9 87 -14 27 4 28 47 1z m-279 -4 c14
3 25 -2 28 -11 5 -13 9 -13 23 -3 11 8 10 5 -3 -10 -11 -12 -29 -22 -40 -22
-21 1 -21 1 -1 17 16 13 17 15 3 10 -11 -4 -18 -1 -18 6 0 7 -5 4 -11 -5 -5
-10 -15 -18 -21 -18 -7 0 -6 5 2 15 9 11 9 15 1 15 -6 0 -14 -7 -17 -15 -9
-22 -19 -18 -20 9 -2 21 1 23 25 16 14 -4 36 -5 49 -4z m-538 -48 c0 14 26 16
35 2 4 -6 -1 -7 -11 -3 -12 5 -15 3 -9 -6 5 -9 2 -12 -10 -9 -10 1 -20 10 -22
18 -4 13 -3 13 6 0 7 -10 11 -11 11 -2z m950 -1 l35 1 -35 -8 c-19 -4 -29 -8
-22 -9 17 -2 15 -18 -2 -18 -8 0 -19 11 -25 24 -9 19 -8 23 1 17 7 -5 29 -8
48 -7z m-1785 -51 c-22 -46 -13 -165 11 -145 11 9 14 8 14 -6 0 -21 -50 -115
-61 -115 -4 0 -14 -3 -22 -6 -10 -3 -16 3 -19 23 -3 15 -8 35 -12 44 -5 10 5
30 29 58 30 36 35 50 35 92 0 29 7 60 16 75 23 35 29 22 9 -20z m905 41 c0 -2
-10 -12 -22 -23 l-23 -19 19 23 c18 21 26 27 26 19z m55 -11 c-26 -7 -47 -23
-62 -45 -13 -19 -23 -30 -23 -25 0 13 30 56 50 71 8 7 29 12 45 12 28 -1 28
-1 -10 -13z m939 -8 c8 -13 6 -21 -7 -36 -9 -10 -17 -26 -17 -35 0 -9 -4 -19
-10 -22 -5 -3 -10 -15 -10 -26 0 -11 -4 -18 -9 -15 -9 6 -24 -35 -16 -43 3 -2
12 4 20 15 13 17 14 17 15 2 0 -10 -4 -18 -9 -18 -5 0 -11 -9 -14 -20 -3 -11
-13 -20 -24 -19 -17 0 -17 1 1 8 14 5 16 10 8 15 -16 10 -15 51 1 68 15 16 47
81 47 97 0 21 -38 -23 -43 -49 -3 -19 -5 -15 -7 15 -2 22 -3 46 -3 53 1 6 -3
12 -8 12 -5 0 -9 -4 -9 -10 0 -5 -4 -10 -10 -10 -5 0 -7 7 -4 15 8 20 28 19
45 -2 10 -11 10 -14 2 -9 -7 4 -13 3 -13 -3 0 -19 15 -19 38 -1 27 22 29 33 3
25 -11 -3 -22 -2 -25 3 -3 5 6 9 21 8 14 -1 31 -9 37 -18z m-1264 -64 c29 -32
39 -49 32 -56 -6 -6 -17 -8 -24 -5 -17 6 -73 107 -60 107 5 0 29 -21 52 -46z
m-105 4 c-3 -12 -11 -28 -20 -35 -8 -7 -10 -8 -5 -1 6 7 10 17 10 23 -1 5 -10
-1 -20 -14 -11 -13 -20 -20 -20 -15 0 7 50 64 56 64 2 0 1 -10 -1 -22z m1362
-35 c-3 -10 -5 -4 -5 12 0 17 2 24 5 18 2 -7 2 -21 0 -30z m-160 -5 c-3 -8 -6
-5 -6 6 -1 11 2 17 5 13 3 -3 4 -12 1 -19z m-1386 -31 c-13 -13 -15 1 -4 30 7
17 8 17 11 -1 2 -10 -1 -23 -7 -29z m110 11 c-5 -13 -16 -22 -25 -22 -9 1 -16
-2 -16 -7 0 -5 -6 -9 -12 -9 -10 1 49 60 59 60 1 0 -1 -10 -6 -22z m302 -109
c-5 -5 -9 22 -10 64 l0 72 9 -63 c6 -37 6 -68 1 -73z m-693 1 c-42 -103 -56
-115 -136 -115 -74 0 -84 7 -113 83 -27 68 -10 59 23 -13 26 -58 33 -62 111
-56 52 4 70 25 106 120 19 50 36 84 37 75 2 -8 -11 -51 -28 -94z m1819 73 c-1
-37 -1 -37 -8 -8 -7 28 -5 45 5 45 2 0 3 -17 3 -37z m-1765 -30 c-21 -39 -25
-57 -20 -95 6 -56 38 -133 68 -165 12 -13 18 -26 14 -30 -25 -25 -106 140
-106 213 0 43 40 124 61 124 5 0 -3 -21 -17 -47z m1404 29 c10 -10 31 -18 47
-18 15 1 30 -5 33 -13 3 -10 -3 -11 -29 -6 -43 9 -89 33 -89 45 0 16 18 12 38
-8z m-1138 -6 c0 -2 -7 -7 -16 -10 -8 -3 -12 -2 -9 4 6 10 25 14 25 6z m-616
-53 c13 -84 -5 -218 -33 -246 -15 -15 -14 -1 5 75 12 45 15 84 10 136 -6 75 7
100 18 35z m1210 16 c40 -19 60 -85 33 -108 -11 -8 -13 -5 -9 17 2 18 -4 37
-16 52 -17 21 -30 25 -91 28 -48 3 -76 0 -86 -8 -9 -7 -18 -11 -20 -8 -9 9 23
30 58 39 37 9 96 4 131 -12z m676 6 c-7 -8 -17 -12 -23 -8 -6 4 -3 9 9 14 27
11 28 11 14 -6z m207 -27 c-3 -8 -6 -5 -6 6 -1 11 2 17 5 13 3 -3 4 -12 1 -19z
m-545 -56 c-7 -2 -5 -10 4 -20 70 -83 99 -112 113 -112 14 0 14 -2 1 -10 -10
-6 3 -7 40 -3 30 3 53 3 49 0 -3 -4 -20 -8 -38 -9 -18 -1 -35 -6 -37 -10 -2
-4 -18 -2 -35 4 -25 9 -28 12 -17 26 11 13 10 14 -9 8 -16 -5 -25 -2 -33 14
-8 15 -8 20 2 20 9 0 9 3 -1 13 -10 10 -15 8 -26 -7 -14 -18 -13 -35 2 -90 3
-12 1 -16 -6 -12 -6 4 -11 3 -11 -3 0 -5 6 -12 13 -15 10 -5 10 -7 0 -12 -8
-3 -13 -26 -13 -57 0 -55 0 -54 73 -109 16 -11 26 -26 23 -34 -3 -7 3 -18 12
-23 9 -6 13 -11 8 -11 -9 0 -51 30 -95 69 -13 11 -20 21 -15 21 5 0 3 4 -5 9
-11 7 -15 41 -17 151 -1 84 2 137 7 129 6 -9 7 -1 5 21 -3 19 -5 35 -6 35 -8
0 -5 53 4 64 9 12 12 9 14 -15 2 -15 -1 -30 -6 -32z m-1137 -57 c4 -45 3 -48
-9 -32 -17 22 -31 111 -20 129 10 15 23 -28 29 -97z m162 73 c24 -18 40 -34
34 -36 -12 -4 -90 49 -91 61 0 13 11 8 57 -25z m1461 -2 c-2 -11 -7 -24 -11
-27 -5 -4 -10 -18 -10 -32 -1 -14 -5 -23 -8 -21 -8 5 -19 -33 -19 -67 0 -14 7
-34 15 -45 14 -18 14 -18 15 9 0 15 -4 27 -10 27 -5 0 0 24 12 53 11 28 21 62
21 73 1 32 30 46 56 28 17 -12 19 -19 11 -34 -12 -23 -13 -30 -1 -30 5 0 11 6
14 13 2 7 3 6 3 -3 -1 -8 -9 -15 -19 -15 -27 0 -37 -24 -37 -91 0 -48 4 -63
16 -68 11 -4 15 -2 11 8 -4 11 -1 13 10 9 10 -4 14 -2 9 5 -3 6 -1 14 5 18 8
5 9 3 4 -6 -6 -10 -4 -12 8 -7 11 4 14 2 10 -9 -3 -7 -11 -14 -19 -14 -8 0
-13 -3 -11 -7 1 -5 -1 -8 -4 -8 -3 0 -12 -5 -20 -12 -8 -6 -34 -12 -58 -11
-26 0 -47 -5 -53 -13 -7 -11 -11 -11 -15 -2 -4 10 -7 10 -17 0 -15 -15 -17
-49 -2 -44 6 3 10 10 8 16 -1 7 2 9 8 6 8 -5 6 -13 -6 -26 -17 -19 -35 -25
-33 -11 1 4 0 10 -1 15 -7 20 -4 33 10 44 8 6 12 15 7 19 -4 4 -7 2 -7 -4 0
-7 -10 -8 -32 -1 -18 5 -50 9 -70 9 -42 0 -56 14 -34 35 16 17 51 21 41 5 -6
-10 44 -34 53 -25 3 2 12 -1 20 -8 9 -6 13 -7 10 -2 -4 6 2 17 13 23 17 11 20
10 17 -5 -2 -14 4 -18 32 -18 26 0 34 4 32 15 -2 11 1 11 11 -2 16 -20 52 -24
62 -8 4 7 -2 9 -19 4 -19 -4 -28 -2 -32 10 -8 20 -34 21 -34 1 0 -28 -38 -17
-44 13 -17 84 -16 100 3 162 20 64 21 98 1 44 -6 -16 -13 -36 -17 -44 -3 -8
-5 -20 -4 -26 2 -15 -47 -66 -58 -60 -4 3 -18 -5 -31 -19 -13 -14 -28 -21 -38
-18 -11 5 -13 3 -7 -6 5 -10 2 -11 -13 -7 -14 5 -25 0 -36 -15 -8 -12 -13 -26
-10 -31 3 -4 -4 -8 -15 -8 -11 0 -23 5 -26 11 -4 6 -17 15 -29 20 -20 9 -20 9
3 5 28 -6 64 10 56 25 -4 5 -1 9 4 9 6 0 11 -6 12 -12 0 -10 2 -10 6 0 2 6 11
12 19 12 9 0 12 4 9 10 -4 6 2 7 18 1 17 -7 24 -6 24 4 0 7 -7 11 -16 8 -11
-3 -10 -1 3 7 10 7 34 14 54 15 32 4 58 22 46 34 -3 3 -9 -1 -14 -9 -6 -8 -10
-10 -10 -5 0 6 11 20 24 33 13 12 27 34 31 49 8 33 24 55 35 48 5 -3 11 -1 14
4 11 18 47 -1 44 -23z m-2150 12 c-2 -9 8 -12 30 -10 l33 3 -6 -48 c-12 -91
-13 -93 -48 -93 -17 0 -47 -9 -64 -20 -37 -22 -43 -35 -13 -25 24 8 25 2 4
-30 -13 -21 -19 -22 -40 -13 -26 12 -30 23 -14 33 6 3 10 29 10 56 0 60 18 98
62 133 36 29 49 32 46 14z m1090 -20 c-3 -7 -15 -14 -29 -16 -68 -8 -68 -7
-64 -70 l4 -57 -8 47 c-5 25 -12 55 -15 65 -5 17 1 21 41 30 68 15 75 15 71 1z
m252 -18 c0 -5 -28 -39 -61 -75 -55 -58 -65 -65 -100 -65 -21 0 -41 5 -44 10
-4 6 7 10 27 10 43 0 86 27 133 84 39 48 45 53 45 36z m-380 -20 c0 -6 -35 -9
-87 -9 -69 2 -79 3 -48 9 62 11 135 11 135 0z m-316 -26 c20 -20 21 -30 1 -14
-8 7 -26 10 -40 8 -26 -5 -35 6 -12 15 22 10 35 7 51 -9z m110 -3 c3 -4 3 -10
0 -13 -7 -8 -54 3 -54 13 0 12 47 12 54 0z m1486 -21 c0 -5 -7 -10 -16 -10 -8
0 -12 5 -9 10 3 6 10 10 16 10 5 0 9 -4 9 -10z m-915 -20 c10 -11 16 -20 13
-20 -3 0 -13 9 -23 20 -10 11 -16 20 -13 20 3 0 13 -9 23 -20z m905 -29 c0
-26 -16 -51 -32 -51 -4 0 -8 12 -8 26 0 22 2 25 15 14 12 -10 15 -10 15 4 0 9
-4 16 -9 16 -5 0 -11 6 -14 14 -4 10 0 12 14 9 13 -4 19 -14 19 -32z m17 -8
c-3 -10 -5 -4 -5 12 0 17 2 24 5 18 2 -7 2 -21 0 -30z m-952 -14 c11 -16 1
-19 -13 -3 -7 8 -8 14 -3 14 5 0 13 -5 16 -11z m713 4 c-10 -2 -18 -12 -18
-21 0 -12 3 -13 11 -5 6 6 18 9 25 6 8 -3 14 1 14 8 0 7 2 10 5 7 8 -8 -6 -58
-16 -58 -5 0 -6 7 -2 16 4 12 0 14 -20 9 -14 -4 -28 -2 -32 5 -9 14 13 40 34
39 13 -1 13 -2 -1 -6z m-1438 -41 c0 -15 -9 -45 -20 -67 -25 -50 -25 -69 1
-112 12 -19 19 -36 16 -39 -10 -10 -47 69 -47 100 0 19 9 54 21 80 11 25 17
51 14 56 -3 6 -1 10 4 10 6 0 11 -13 11 -28z m1196 16 c3 -4 -4 -9 -16 -13
-14 -4 -28 -2 -37 7 -12 13 -10 15 16 13 17 -1 34 -4 37 -7z m-416 -13 c4 3
19 -10 33 -28 17 -23 21 -34 12 -34 -8 0 -12 4 -10 8 3 4 -2 10 -10 13 -8 3
-14 11 -13 18 2 7 -3 12 -11 13 -8 0 -15 6 -17 13 -1 7 0 8 3 2 2 -5 8 -8 13
-5z m-220 -25 c-13 -25 -4 -42 10 -20 8 13 10 12 10 -2 0 -10 -4 -18 -9 -18
-5 0 -3 -13 5 -30 10 -20 20 -27 32 -24 14 5 15 4 2 -5 -13 -9 -13 -11 2 -11
9 0 19 -4 22 -9 4 -5 -3 -7 -15 -4 -20 6 -21 5 -5 -25 24 -47 18 -53 -7 -7
-11 22 -22 42 -22 45 -1 3 -11 24 -23 48 -13 23 -20 47 -17 51 3 5 -1 12 -7
14 -8 3 -6 6 5 6 9 1 17 6 17 13 0 6 3 9 6 6 3 -4 0 -16 -6 -28z m608 -22 c-7
-19 -35 -21 -41 -3 -5 11 0 15 19 15 16 0 24 -5 22 -12z m-968 -65 c0 -18 -7
-16 -49 9 -69 42 -70 66 -1 29 27 -14 50 -32 50 -38z m930 21 c0 -8 -4 -14
-10 -14 -5 0 -7 7 -4 15 4 8 1 15 -5 15 -6 0 -11 5 -11 11 0 8 5 8 15 -1 8 -7
15 -19 15 -26z m-282 -11 c0 -27 -1 -26 -16 3 -8 16 -8 21 2 21 8 0 14 -11 14
-24z m893 -53 c6 -19 20 -49 30 -66 37 -62 18 -132 -41 -152 -28 -10 -30 -9
-30 14 0 13 -8 32 -19 43 -18 18 -18 19 0 42 23 30 24 39 1 39 -20 0 -78 73
-84 105 -2 17 3 21 34 23 20 2 42 10 49 18 11 14 15 13 31 -8 10 -13 23 -39
29 -58z m-891 -12 c0 -17 -3 -19 -9 -9 -7 10 -12 8 -25 -10 -12 -17 -16 -19
-16 -7 0 8 10 23 23 31 28 20 27 21 27 -5z m-1728 0 c-16 -16 -15 -28 2 -28
17 0 63 -36 55 -44 -8 -9 -89 35 -89 48 0 15 20 36 34 36 6 0 5 -5 -2 -12z
m2078 0 c0 -5 0 -12 0 -18 0 -5 -5 -10 -11 -10 -8 0 -7 5 2 16 11 13 9 14 -13
9 -14 -4 -28 -3 -31 2 -3 4 8 8 24 8 16 0 29 -3 29 -7z m255 -8 c-4 -12 -2
-20 5 -20 6 0 9 4 6 8 -2 4 0 14 5 22 11 16 4 -45 -8 -77 -5 -12 -3 -14 7 -8
10 6 12 4 7 -9 -4 -10 -7 -20 -7 -22 0 -2 -9 5 -21 17 -15 15 -18 24 -10 33 6
7 8 16 5 19 -7 7 3 57 12 57 3 0 2 -9 -1 -20z m95 -15 c10 -12 10 -15 -4 -15
-9 0 -16 7 -16 15 0 8 2 15 4 15 2 0 9 -7 16 -15z m-682 -34 c4 -23 4 -23 -22
-5 -32 24 -33 36 -3 32 14 -2 23 -11 25 -27z m682 1 c0 -4 -6 -14 -12 -21 -9
-10 -10 -12 -1 -7 7 4 21 -1 33 -11 22 -19 26 -33 9 -33 -5 0 -7 5 -3 11 4 7
0 9 -12 5 -28 -8 -49 8 -39 30 5 11 7 22 7 27 -1 4 3 7 8 7 6 0 10 -4 10 -8z
m38 -28 c-4 -3 -12 5 -18 18 -12 22 -12 22 6 6 10 -10 15 -20 12 -24z m-2452
-15 c43 -26 38 -35 -10 -18 -29 10 -36 18 -35 39 0 14 3 20 5 13 3 -7 21 -22
40 -34z m1514 29 c0 -4 -4 -8 -9 -8 -6 0 -12 4 -15 8 -3 5 1 9 9 9 8 0 15 -4
15 -9z m640 -12 c0 -4 7 -5 16 -2 8 3 22 -1 30 -9 20 -19 38 -19 31 0 -9 21
11 29 29 11 13 -13 13 -23 1 -13 -2 1 -11 -4 -20 -11 -9 -8 -21 -11 -27 -7 -6
3 -35 6 -65 6 -30 0 -57 4 -60 9 -3 4 4 6 15 3 11 -3 20 -1 20 5 0 6 -8 13
-17 15 -10 2 -3 4 14 3 18 0 33 -5 33 -10z m-171 -5 c11 -7 9 -10 -9 -16 -18
-6 -20 -9 -9 -16 11 -7 11 -9 1 -9 -7 0 -11 -4 -8 -9 4 -5 16 -4 31 2 21 10
22 13 7 19 -15 6 -15 7 -1 7 9 1 33 -6 52 -14 20 -8 51 -15 69 -15 26 0 38 -7
53 -30 17 -26 52 -39 47 -17 -1 4 -2 16 -2 28 0 18 -4 20 -25 15 -14 -4 -25
-2 -25 3 0 5 11 11 25 13 31 6 61 -14 50 -33 -5 -8 1 -5 13 5 12 11 22 17 22
13 0 -3 3 -13 7 -23 5 -13 3 -15 -7 -9 -8 5 -4 -5 7 -21 l22 -30 -25 0 c-13 0
-24 4 -24 8 0 4 5 8 11 8 8 0 7 5 -2 16 -12 14 -14 14 -27 -3 -7 -10 -20 -17
-29 -15 -9 2 -13 -2 -11 -10 6 -18 35 -22 41 -6 2 7 3 5 1 -5 -2 -15 3 -17 34
-12 l37 5 -34 -11 c-18 -6 -40 -17 -48 -25 -13 -12 -7 -14 39 -15 45 -1 48 -3
23 -9 -45 -11 -105 -11 -105 0 0 6 5 10 11 10 5 0 7 5 4 10 -3 6 -1 10 4 10
24 0 9 20 -21 29 -20 6 -25 10 -13 10 18 1 18 2 3 17 -12 13 -20 14 -36 5 -17
-9 -23 -7 -36 10 l-14 21 -12 -22 c-10 -18 -9 -22 9 -27 26 -7 27 -23 2 -23
-17 0 -106 67 -122 92 -3 5 -10 10 -15 11 -11 2 -5 41 7 45 5 2 7 8 3 13 -7
11 7 11 25 0z m-274 -19 c-3 -3 -11 0 -18 7 -9 10 -8 11 6 5 10 -3 15 -9 12
-12z m-31 -1 c4 -5 -3 -7 -14 -4 -23 6 -26 13 -6 13 8 0 17 -4 20 -9z m614 -5
c-16 -8 -32 -18 -38 -21 -5 -3 -10 1 -10 9 0 9 6 13 14 10 8 -3 17 -1 21 5 3
6 14 11 23 11 11 0 7 -5 -10 -14z m-1005 -13 c-7 -2 -21 -2 -30 0 -10 3 -4 5
12 5 17 0 24 -2 18 -5z m-1279 -52 c-2 -3 -12 3 -22 13 -16 17 -16 18 5 5 12
-7 20 -15 17 -18z m2383 23 c-3 -3 -12 -4 -19 -1 -8 3 -5 6 6 6 11 1 17 -2 13
-5z m-22 -22 c-3 -3 -11 0 -18 7 -9 10 -8 11 6 5 10 -3 15 -9 12 -12z m-1132
-73 c-6 -20 -36 -20 -44 1 -8 20 21 41 36 26 7 -6 10 -18 8 -27z m120 1 c-6
-21 -36 -21 -44 0 -3 8 -1 19 5 26 15 16 45 -4 39 -26z m119 -2 c-5 -21 -34
-20 -43 2 -3 8 -1 19 5 26 16 16 45 -4 38 -28z m115 1 c0 -10 -9 -16 -22 -16
-23 0 -29 23 -11 43 13 14 33 -3 33 -27z m116 0 c-6 -20 -36 -20 -44 1 -8 20
21 41 36 26 7 -6 10 -18 8 -27z m265 -6 c-10 -2 -18 -9 -18 -14 0 -11 3 -11
35 1 14 5 24 6 21 1 -4 -5 0 -11 6 -14 7 -2 -8 -5 -34 -5 -45 -1 -49 2 -39 36
1 1 11 1 24 1 16 -1 18 -2 5 -6z m185 -8 c-1 -5 -7 -11 -15 -13 -10 -3 -9 -1
1 6 11 8 9 11 -10 15 l-24 5 25 -1 c14 -1 24 -6 23 -12z m167 5 c-8 -5 -24 -9
-35 -9 -16 1 -16 2 5 9 35 11 48 11 30 0z m-250 -12 c0 -4 -5 -8 -11 -8 -5 0
-7 -5 -3 -12 4 -7 3 -8 -5 -4 -6 4 -9 11 -6 16 3 5 -3 11 -12 13 -10 3 -6 4
10 4 15 -1 27 -5 27 -9z m73 -25 c-13 -2 -35 -2 -50 0 -16 2 -5 4 22 4 28 0
40 -2 28 -4z m-1843 -13 c0 -5 -7 -10 -16 -10 -8 0 -12 5 -9 10 3 6 10 10 16
10 5 0 9 -4 9 -10z m2045 0 c-3 -5 -16 -10 -28 -9 -20 1 -20 2 3 9 14 4 26 8
28 9 2 1 0 -3 -3 -9z m-1397 -73 c29 -30 31 -36 27 -86 -3 -37 -12 -62 -25
-76 -20 -22 -20 -23 -4 -59 10 -20 21 -36 26 -36 4 0 8 -18 8 -41 l0 -40 -37
3 c-34 3 -38 6 -64 68 -15 36 -33 65 -41 65 -19 0 -23 -46 -4 -57 10 -6 16
-23 16 -48 l0 -40 -70 0 -70 0 0 36 c0 21 7 42 15 48 10 7 16 40 21 104 6 81
5 92 -10 92 -12 0 -16 10 -16 45 l0 44 78 4 c42 1 86 4 98 5 11 1 33 -12 52
-31z m332 -42 l0 -75 -29 0 c-25 0 -30 5 -35 35 -4 21 -13 35 -21 35 -22 0
-22 -198 0 -206 10 -4 15 -20 15 -45 l0 -39 -75 0 -75 0 0 39 c0 31 4 41 20
46 18 6 20 15 20 106 0 81 -3 99 -15 99 -8 0 -15 -9 -15 -19 0 -37 -12 -51
-41 -51 l-29 0 0 68 c0 38 3 72 7 75 3 4 66 7 140 7 l133 0 0 -75z m479 40
c22 -25 31 -46 31 -70 0 -33 -2 -35 -36 -35 -27 0 -37 5 -41 20 -4 15 -14 20
-39 20 l-34 0 0 -89 c0 -72 3 -90 16 -95 31 -12 56 -6 61 14 4 15 14 20 39 20
32 0 34 -2 34 -32 -1 -20 -10 -44 -25 -60 -21 -25 -31 -28 -83 -28 -56 0 -62
2 -91 35 -31 36 -31 36 -31 152 l0 117 32 33 c28 29 38 33 84 33 47 0 55 -3
83 -35z m258 11 c3 -2 41 -185 48 -234 4 -26 14 -48 26 -55 13 -8 19 -23 19
-51 0 -38 -1 -38 -31 -32 -17 3 -47 6 -65 6 -33 0 -34 1 -34 39 0 22 4 42 9
45 5 3 7 15 4 26 -8 29 -73 29 -73 1 0 -11 5 -23 10 -26 6 -3 10 -24 10 -47 0
-32 -3 -39 -16 -34 -9 3 -36 6 -60 6 -44 0 -44 0 -44 36 0 22 6 41 16 48 9 7
23 49 34 102 16 76 16 90 4 97 -8 5 -14 24 -14 48 l0 40 78 -7 c42 -4 78 -7
79 -8z m-1365 -23 c28 -26 28 -28 28 -147 l-1 -121 -32 -37 c-29 -33 -38 -37
-89 -40 -48 -3 -60 0 -82 21 -25 24 -26 28 -26 149 l0 124 39 39 c34 35 44 39
87 39 38 0 53 -5 76 -27z m1628 1 c48 -5 59 -11 83 -42 35 -46 38 -124 6 -158
-20 -21 -20 -23 -3 -55 9 -18 23 -39 30 -47 8 -7 14 -29 14 -49 0 -28 -3 -34
-16 -29 -9 3 -25 6 -35 6 -15 0 -29 19 -54 75 -23 49 -40 75 -51 75 -13 0 -15
-6 -9 -27 3 -16 13 -32 21 -36 8 -4 14 -23 14 -42 0 -33 -2 -35 -32 -35 -18 0
-50 3 -70 6 -36 6 -38 9 -38 44 0 23 5 40 14 43 19 7 10 188 -10 200 -8 5 -14
25 -14 48 l0 41 48 -6 c26 -3 72 -8 102 -12z m-1882 -26 c24 -28 27 -39 23
-87 -4 -76 -37 -116 -103 -126 -38 -5 -48 -11 -48 -25 0 -11 7 -23 16 -28 13
-7 15 -18 10 -46 -6 -32 -10 -36 -39 -36 -18 0 -49 -3 -69 -6 l-37 -6 6 38 c3
22 11 44 18 49 18 15 25 193 8 200 -8 2 -13 22 -13 44 0 39 1 40 43 45 154 20
155 20 185 -16z m2162 -4 c70 -8 81 -14 124 -67 35 -42 35 -43 41 -166 l6
-124 -33 -35 c-27 -28 -101 -90 -186 -156 -8 -5 5 18 27 52 23 33 41 63 41 66
0 3 -31 8 -69 12 -59 5 -70 10 -75 28 -10 38 -6 65 11 75 16 8 18 23 15 113
-3 88 -6 105 -23 117 -14 10 -19 25 -19 58 l0 45 43 -6 c23 -3 67 -9 97 -12z
m-2461 -28 c27 -28 32 -40 29 -72 -3 -38 -4 -39 -45 -42 -38 -3 -43 -1 -43 18
0 19 -4 21 -32 15 -71 -15 -63 -49 13 -58 78 -9 99 -34 99 -114 0 -58 -3 -66
-36 -103 -23 -25 -45 -40 -60 -40 -32 0 -30 -11 12 -78 20 -31 31 -52 23 -46
-8 7 -45 35 -84 64 -94 70 -117 100 -113 147 3 36 5 38 41 41 32 2 40 -1 44
-18 4 -14 14 -20 32 -20 33 0 48 10 53 35 3 17 -5 21 -59 30 -87 14 -103 32
-103 114 1 60 4 69 34 103 31 36 60 47 152 57 5 0 25 -14 43 -33z m956 -493
l-6 -28 21 28 c12 15 31 27 42 27 19 0 19 0 -1 -28 l-20 -29 24 -36 c25 -36
21 -53 -9 -41 -9 4 -21 15 -27 25 -12 23 -31 16 -27 -9 2 -11 -5 -18 -18 -20
-19 -3 -21 2 -20 68 1 66 2 70 24 70 19 0 22 -4 17 -27z m205 9 c0 -15 -6 -17
-35 -14 -21 3 -35 0 -35 -7 0 -6 11 -11 25 -11 16 0 25 -6 25 -15 0 -9 -9 -15
-25 -15 -14 0 -25 -5 -25 -11 0 -7 14 -10 35 -7 29 3 35 1 35 -14 0 -15 -9
-18 -52 -18 l-53 0 0 65 0 65 53 0 c43 0 52 -3 52 -18z m124 3 c4 -10 -1 -15
-14 -15 -17 0 -20 -7 -20 -50 0 -43 -3 -50 -20 -50 -17 0 -20 7 -20 50 0 43
-3 50 -20 50 -20 0 -26 11 -13 23 3 4 28 7 54 7 32 0 49 -5 53 -15z m110 2
c28 -20 17 -59 -21 -76 -18 -8 -33 -21 -33 -28 0 -7 -9 -13 -20 -13 -18 0 -20
7 -20 65 l0 65 38 0 c21 0 46 -6 56 -13z m68 -37 c-4 -47 -3 -50 19 -51 13 -1
30 -1 37 0 14 2 15 -8 3 -27 -5 -9 -23 -12 -50 -10 l-43 3 -1 68 c-2 62 0 67
19 67 19 0 21 -4 16 -50z m-726 -24 c13 -33 24 -60 24 -62 0 -10 -40 -9 -44 2
-7 19 -45 18 -52 -1 -4 -8 -15 -15 -26 -15 -12 0 -18 5 -15 13 46 115 53 127
70 125 13 -2 27 -23 43 -62z m152 31 c2 -16 -1 -34 -7 -41 -8 -10 -7 -17 4
-26 8 -7 15 -16 15 -21 0 -17 -40 -9 -60 13 l-20 22 0 -22 c0 -16 -6 -22 -22
-22 -22 0 -23 3 -20 65 l4 66 51 -3 c49 -3 52 -5 55 -31z m765 -34 c15 -37 25
-69 22 -71 -2 -3 -16 3 -29 12 -28 18 -66 21 -66 6 0 -5 -9 -10 -21 -10 -13 0
-19 5 -17 13 3 6 13 36 23 65 15 41 24 52 40 52 17 0 27 -14 48 -67z m115 61
c12 -4 22 -14 22 -25 0 -15 -6 -17 -36 -12 -35 6 -35 6 -32 -28 3 -32 5 -34
41 -33 30 1 37 -2 35 -15 -5 -26 -72 -27 -98 -1 -30 30 -24 90 10 107 29 15
28 15 58 7z m-1163 -69 c0 -45 -4 -65 -12 -65 -24 0 -27 5 -24 30 3 24 3 25
-17 7 -20 -18 -21 -18 -31 0 -9 15 -10 13 -11 -14 0 -27 -4 -33 -21 -33 -19 0
-20 5 -17 65 2 53 6 65 20 65 9 0 23 -9 32 -21 l14 -21 17 26 c10 14 25 26 34
26 13 0 16 -11 16 -65z m1307 42 c5 -8 -3 -13 -27 -15 -40 -4 -48 -22 -10 -22
16 0 25 -6 25 -15 0 -9 -10 -15 -26 -15 -14 0 -23 -4 -19 -10 3 -5 19 -10 36
-10 20 0 29 -5 29 -16 0 -12 -10 -14 -51 -12 l-51 3 -4 69 -5 69 47 -7 c27 -3
51 -12 56 -19z m-689 -513 c21 13 466 121 472 114 2 -2 -94 -43 -212 -91
l-216 -87 -33 21 c-19 11 -34 18 -34 14 0 -4 25 -45 55 -92 58 -89 56 -90 -30
-20 l-29 24 -60 -48 c-33 -27 -61 -47 -63 -46 -1 2 9 34 24 70 16 41 23 71 17
76 -5 4 -106 45 -224 91 -118 46 -219 86 -223 90 -4 4 101 -17 235 -46 133
-30 245 -50 249 -46 3 4 12 30 19 57 21 84 25 83 28 -7 l3 -88 22 14z"/>
<path d="M2750 2860 c0 -5 5 -10 11 -10 5 0 7 5 4 10 -3 6 -8 10 -11 10 -2 0
-4 -4 -4 -10z"/>
<path d="M2775 3760 c3 -5 11 -10 16 -10 6 0 7 5 4 10 -3 6 -11 10 -16 10 -6
0 -7 -4 -4 -10z"/>
<path d="M2588 3643 c7 -3 16 -2 19 1 4 3 -2 6 -13 5 -11 0 -14 -3 -6 -6z"/>
<path d="M1708 3673 c-21 -5 -24 -23 -5 -23 8 0 9 -2 1 -8 -6 -4 -14 -17 -18
-28 -5 -17 -2 -23 14 -27 14 -3 20 -1 17 6 -2 7 12 17 32 23 l36 11 -25 11
c-22 9 -23 11 -8 17 38 15 1 30 -44 18z"/>
<path d="M1665 3519 c-10 -15 3 -25 16 -12 7 7 7 13 1 17 -6 3 -14 1 -17 -5z"/>
<path d="M3171 3284 c0 -11 3 -14 6 -6 3 7 2 16 -1 19 -3 4 -6 -2 -5 -13z"/>
<path d="M3210 3241 c0 -5 5 -13 10 -16 6 -3 10 -2 10 4 0 5 -4 13 -10 16 -5
3 -10 2 -10 -4z"/>
<path d="M3208 2950 c18 -18 35 -30 37 -28 7 6 -9 23 -40 42 l-30 18 33 -32z"/>
<path d="M3224 2852 c-6 -4 -14 -14 -17 -22 -4 -11 -6 -10 -6 5 -1 17 -3 17
-11 5 -7 -11 -1 -20 25 -36 19 -11 33 -23 30 -25 -2 -3 6 -11 18 -18 16 -10
19 -10 10 -1 -8 9 -9 19 -3 30 7 13 5 22 -5 30 -8 7 -15 19 -15 26 0 15 -9 18
-26 6z m2 -30 c-18 -16 -18 -16 -6 6 6 13 14 21 18 18 3 -4 -2 -14 -12 -24z
m39 -11 c3 -5 1 -12 -5 -16 -5 -3 -10 -1 -10 5 0 6 -5 8 -12 4 -7 -4 -8 -3 -4
4 9 14 23 15 31 3z"/>
<path d="M3273 2836 c2 -5 11 -10 20 -12 9 -1 24 -9 33 -18 21 -21 24 -20 22
8 -2 20 -8 25 -40 28 -21 2 -37 -1 -35 -6z"/>
<path d="M2040 2510 c0 -27 3 -30 30 -30 27 0 30 3 30 30 0 27 -3 30 -30 30
-27 0 -30 -3 -30 -30z"/>
<path d="M3155 2488 c-8 -31 -1 -58 15 -58 11 0 12 23 0 60 l-7 25 -8 -27z"/>
<path d="M1758 2519 c-15 -8 -18 -25 -18 -100 l0 -90 33 3 32 3 0 95 c0 100
-7 113 -47 89z"/>
<path d="M3452 2478 c3 -29 7 -33 36 -36 28 -3 32 0 32 22 0 28 -3 30 -43 40
-27 6 -28 5 -25 -26z"/>
<path d="M1490 2469 c0 -27 3 -30 28 -27 21 2 28 9 30 31 3 24 0 27 -27 27
-28 0 -31 -3 -31 -31z"/>
<path d="M3764 2355 c4 -109 10 -124 47 -125 34 0 42 26 34 113 -3 46 -10 88
-13 94 -4 6 -22 14 -40 18 l-33 7 5 -107z"/>
<path d="M2650 2019 c0 -24 23 -21 28 4 2 10 -3 17 -12 17 -10 0 -16 -9 -16
-21z"/>
<path d="M1997 1993 c-4 -3 -7 -11 -7 -17 0 -6 5 -5 12 2 6 6 9 14 7 17 -3 3
-9 2 -12 -2z"/>
<path d="M2130 2010 c0 -18 3 -19 20 -10 22 12 18 30 -6 30 -8 0 -14 -9 -14
-20z"/>
<path d="M2910 1990 c0 -5 5 -10 11 -10 5 0 7 5 4 10 -3 6 -8 10 -11 10 -2 0
-4 -4 -4 -10z"/>
</g>
</svg>
